<?xml version="1.0" standalone="no"?>
<!DOCTYPE svg PUBLIC "-//W3C//DTD SVG 20010904//EN"
 "http://www.w3.org/TR/2001/REC-SVG-20010904/DTD/svg10.dtd">
<svg version="1.0" xmlns="http://www.w3.org/2000/svg"
 width="400.000000pt" height="400.000000pt" viewBox="0 0 400.000000 400.000000"
 preserveAspectRatio="xMidYMid meet">

<g transform="translate(0.000000,400.000000) scale(0.100000,-0.100000)"
fill="#ff506e" stroke="none">
<path d="M3100 3312 c-156 -3 -138 6 -256 -138 -46 -57 -74 -100 -74 -115 0
-17 63 -96 216 -269 118 -134 221 -248 227 -252 27 -17 55 -6 98 40 124 128
409 464 409 481 0 14 -157 222 -183 243 -7 5 -322 13 -437 10z m90 -48 c0 -8
-122 -154 -129 -154 -3 0 -16 28 -28 63 -12 34 -25 70 -28 80 -7 15 2 17 89
17 53 0 96 -3 96 -6z m273 -66 c-14 -40 -29 -77 -33 -81 -4 -5 -37 28 -74 72
l-67 81 100 0 101 0 -27 -72z m-142 -31 l67 -82 -68 -3 c-38 -2 -103 -2 -144
0 l-74 3 71 87 c39 48 73 85 76 82 3 -3 36 -42 72 -87z m-333 8 c11 -33 23
-68 27 -77 7 -16 -2 -18 -95 -18 l-101 0 68 84 c37 46 71 81 74 77 4 -3 15
-33 27 -66z m611 -9 c33 -41 61 -77 61 -80 0 -3 -43 -6 -95 -6 -52 0 -95 3
-95 6 0 16 54 154 60 154 4 0 35 -33 69 -74z m-491 -323 c39 -109 70 -199 68
-201 -2 -1 -83 88 -180 198 l-177 200 109 0 109 0 71 -197z m221 -19 c-43
-119 -79 -220 -81 -226 -2 -5 -40 92 -84 217 l-81 225 162 0 162 0 -78 -216z
m324 203 c-13 -22 -337 -387 -340 -383 -2 1 28 90 67 196 38 107 70 195 70
197 0 2 47 3 105 3 85 0 104 -3 98 -13z"/>
<path d="M505 3286 c-113 -28 -207 -107 -259 -216 -29 -60 -31 -73 -31 -170 0
-93 3 -111 27 -163 34 -73 113 -156 180 -190 98 -49 218 -57 320 -21 37 13 40
13 33 -4 -4 -9 -22 -60 -41 -112 -104 -297 -82 -633 59 -928 l34 -72 -211 0
-211 0 129 129 c117 117 140 151 103 151 -6 0 -73 -61 -147 -135 -75 -75 -151
-143 -170 -153 -47 -23 -61 -63 -34 -99 15 -21 28 -74 48 -208 23 -150 31
-184 49 -202 21 -21 30 -22 314 -25 l291 -3 25 24 c20 17 28 40 37 95 6 39 13
83 16 98 l5 27 62 -48 c329 -256 757 -330 1142 -199 155 53 332 155 431 250
l32 30 4 -154 c4 -164 12 -196 58 -229 14 -10 36 -19 50 -20 14 -1 216 -1 449
-1 l424 2 33 36 34 35 0 262 c-1 283 -2 292 -56 328 -27 18 -50 19 -401 19
-205 0 -373 2 -373 4 0 2 15 36 34 77 133 290 150 606 50 907 -120 359 -408
647 -768 767 -424 141 -889 42 -1215 -261 l-59 -54 -1 55 c-3 251 -246 433
-496 371z m247 -58 c73 -34 142 -103 176 -176 23 -49 27 -70 27 -152 0 -81 -4
-103 -26 -150 -34 -73 -99 -136 -178 -173 -54 -26 -75 -30 -146 -30 -71 0 -92
4 -146 30 -150 70 -232 221 -207 378 10 69 21 96 58 150 38 56 97 102 168 132
79 33 192 29 274 -9z m1266 -38 c53 -6 129 -19 168 -30 68 -18 189 -60 182
-63 -2 -1 -214 0 -473 3 l-470 5 60 22 c170 62 346 83 533 63z m590 -237 c317
-241 494 -649 453 -1046 -17 -165 -46 -266 -117 -414 -34 -70 -36 -73 -70 -73
-78 0 -121 -52 -131 -155 -6 -63 -8 -69 -55 -112 -223 -212 -528 -323 -848
-310 -278 12 -523 108 -724 285 -37 32 -38 34 -31 85 4 29 17 68 28 88 18 31
19 41 9 63 -7 15 -27 33 -45 41 -17 8 -93 75 -167 149 -74 75 -140 136 -146
136 -19 0 -46 150 -51 286 -10 256 66 530 182 655 24 26 57 73 73 105 44 87
181 217 305 289 l48 28 -20 -34 c-20 -32 -21 -49 -21 -287 l0 -253 -40 -66
c-148 -246 -147 -561 3 -796 l36 -56 3 -230 c3 -214 4 -232 24 -258 47 -64 39
-63 574 -63 466 0 486 1 518 20 67 41 72 61 72 290 l0 205 36 50 c46 64 97
172 120 255 22 78 25 290 5 360 -23 86 -61 176 -95 228 l-35 52 62 32 c77 40
245 204 227 222 -6 6 -41 22 -78 36 -66 25 -68 27 -107 100 -22 40 -45 75 -51
77 -7 2 -27 -15 -45 -39 l-34 -42 -5 75 c-5 58 -11 83 -30 109 l-25 34 60 -33
c33 -18 93 -58 133 -88z m-238 92 c48 -25 60 -52 60 -132 l0 -73 -555 0 -555
0 0 65 c0 79 19 121 63 140 49 22 946 21 987 0z m206 -216 l26 -51 -24 -27
c-14 -14 -68 -74 -121 -133 -104 -115 -111 -116 -83 -11 21 79 49 130 111 206
31 37 58 67 61 67 2 0 15 -23 30 -51z m-185 -76 c-40 -66 -61 -135 -68 -218
-6 -75 -10 -81 -99 -177 l-44 -47 -49 34 c-81 54 -141 70 -261 69 -84 0 -116
-4 -161 -22 -330 -130 -421 -542 -175 -788 96 -96 208 -144 336 -144 270 0
481 209 481 476 0 124 -32 219 -107 309 l-32 40 71 77 c59 63 79 77 110 82
l37 5 0 -570 0 -569 -555 0 -555 0 0 745 0 745 550 0 550 0 -29 -47z m275
-121 c-78 -74 -163 -124 -236 -138 l-35 -7 31 34 c16 19 69 77 117 130 l87 97
57 -21 56 -21 -77 -74z m-132 -297 c50 -102 68 -188 69 -320 0 -153 -43 -303
-112 -385 l-20 -25 -1 414 c0 461 -2 451 64 316z m-1256 -506 l-3 -193 -33 68
c-52 106 -66 175 -67 311 0 139 13 199 64 305 l36 75 3 -187 c1 -103 1 -273 0
-379z m700 536 c61 -15 139 -53 160 -78 7 -8 0 -24 -24 -51 l-34 -39 -52 28
c-44 24 -68 30 -141 33 -82 4 -91 3 -152 -27 -115 -57 -185 -167 -185 -291 0
-200 178 -351 376 -320 232 37 348 302 218 499 l-36 53 39 40 38 39 28 -33
c71 -84 101 -182 95 -305 -3 -73 -10 -100 -36 -156 -36 -77 -123 -172 -190
-206 -167 -85 -366 -60 -500 62 -49 46 -102 122 -121 177 -84 239 56 509 298
572 82 21 138 22 219 3z m20 -170 l54 -25 -37 -45 c-36 -44 -37 -44 -65 -30
-37 19 -113 19 -149 1 -69 -36 -111 -118 -97 -189 30 -151 228 -189 316 -60
32 47 34 131 5 181 l-19 32 37 38 38 37 25 -30 c13 -16 31 -52 39 -79 63 -209
-110 -403 -325 -364 -215 38 -304 305 -156 466 85 93 221 120 334 67z m-69
-134 c11 -7 10 -14 -7 -37 -11 -16 -29 -38 -41 -48 -23 -21 -28 -56 -8 -56 8
0 33 23 57 51 37 43 45 49 57 37 41 -41 19 -142 -39 -178 -51 -32 -132 -24
-169 18 -78 87 -20 222 95 222 23 0 47 -4 55 -9z m-939 -648 c0 -2 -26 -3 -58
-3 l-59 0 -46 98 c-26 53 -47 101 -47 107 0 5 47 -37 105 -95 58 -58 105 -106
105 -107z m2734 -58 l26 -24 0 -251 0 -251 -25 -24 -24 -25 -429 0 c-504 0
-471 -7 -483 106 -12 102 -10 383 1 426 20 70 6 68 481 68 l426 0 27 -25z
m-2639 -10 c0 -20 -8 -20 -379 -23 -229 -1 -384 2 -389 7 -5 5 -7 17 -4 25 6
15 48 16 389 14 375 -3 383 -3 383 -23z m-35 -89 c0 -43 -51 -331 -60 -340
-15 -15 -565 -15 -580 0 -9 9 -60 297 -60 340 0 12 55 14 350 14 295 0 350 -2
350 -14z m1380 -62 c0 -73 -1 -77 -34 -110 l-34 -34 -487 0 -487 0 -34 34
c-33 33 -34 37 -34 110 l0 76 555 0 555 0 0 -76z"/>
<path d="M551 3188 c-227 -34 -318 -325 -154 -493 146 -150 409 -94 483 102
81 216 -96 425 -329 391z m30 -76 c-37 -12 -77 -51 -85 -83 -15 -59 12 -99 96
-145 39 -22 76 -47 82 -56 15 -24 -3 -69 -35 -87 -38 -21 -84 0 -101 45 -8 22
-19 34 -30 34 -40 0 -8 -89 41 -114 16 -9 31 -25 34 -37 5 -20 3 -21 -29 -16
-49 8 -118 51 -150 92 -117 154 -30 375 161 407 14 2 21 -3 23 -16 2 -11 -1
-22 -7 -24z m143 16 c70 -35 136 -143 136 -222 0 -52 -25 -122 -59 -165 -51
-64 -192 -123 -173 -72 4 11 23 30 42 43 46 31 61 83 37 133 -12 26 -32 42
-79 66 -81 40 -98 56 -98 91 0 63 78 91 125 43 14 -13 25 -33 25 -45 0 -13 7
-20 20 -20 46 0 7 97 -49 120 -22 9 -31 19 -31 35 0 22 2 22 41 14 23 -6 51
-15 63 -21z"/>
<path d="M1700 2950 c0 -19 7 -20 95 -20 88 0 95 1 95 20 0 19 -7 20 -95 20
-88 0 -95 -1 -95 -20z"/>
<path d="M1990 2950 c0 -16 7 -20 30 -20 23 0 30 4 30 20 0 16 -7 20 -30 20
-23 0 -30 -4 -30 -20z"/>
<path d="M2882 1108 l3 -83 110 0 110 0 3 83 3 82 -116 0 -116 0 3 -82z m188
-3 l0 -45 -75 0 -75 0 0 45 0 45 75 0 75 0 0 -45z"/>
<path d="M3371 1083 c-92 -46 -94 -190 -4 -237 43 -22 238 -16 275 8 68 45 75
144 14 205 -38 37 -33 37 -151 32 -11 -1 -38 1 -60 4 -27 4 -51 0 -74 -12z
m82 -29 c3 -4 0 -19 -8 -35 -19 -35 -19 -77 0 -109 20 -36 19 -40 -16 -40 -63
0 -110 82 -79 140 18 33 85 62 103 44z m156 -8 c27 -14 51 -53 51 -82 0 -46
-52 -94 -102 -94 -15 0 -18 4 -13 18 22 52 22 101 0 155 -9 22 24 23 64 3z
m-86 -79 c0 -19 -5 -43 -13 -52 -12 -15 -15 -14 -26 7 -17 29 -17 50 -2 83 10
22 13 24 26 12 8 -8 14 -31 15 -50z"/>
<path d="M2887 924 c-4 -4 -7 -13 -7 -21 0 -10 26 -13 116 -13 105 0 115 2
112 18 -3 15 -18 17 -109 20 -58 1 -108 -1 -112 -4z"/>
<path d="M685 1177 c-3 -7 -5 -52 -3 -98 2 -67 6 -84 18 -84 12 0 15 17 15 94
0 67 -4 96 -12 98 -7 3 -15 -2 -18 -10z"/>
<path d="M490 1173 c1 -5 9 -46 18 -93 13 -60 22 -85 32 -85 18 0 18 44 1 128
-10 45 -16 57 -32 57 -10 0 -19 -3 -19 -7z"/>
<path d="M861 1130 c-21 -99 -24 -127 -11 -135 17 -10 26 8 40 79 6 34 14 71
17 84 4 17 1 22 -15 22 -16 0 -22 -10 -31 -50z"/>
<path d="M1840 1185 c-17 -20 -5 -62 20 -70 44 -14 80 41 48 73 -17 17 -53 15
-68 -3z"/>
</g>
</svg>
